Diary of a Sex Addict2008 aka Diario de una ninfómana[x264][AC3(5.1)Sp/Fr_Audio-Nordic_Sub.mkv

General
Complete name                    : Diary of a Sex Addict.mkv
Format                           : Matroska
File size                        : 1.34 GiB
Duration                         : 1h 37mn
Overall bit rate                 : 1 977 Kbps


Video
ID                               : 1
Format                           : AVC
Duration                         : 1h 37mn
Bit rate                         : 1 490 Kbps
Width                            : 718 pixels
Height                           : 438 pixels
Display aspect ratio             : 2.35:1
Frame rate                       : 25.000 fps
Resolution                       : 8 bits
Colorimetry                      : 4:2:0
Scan type                        : Progressive
Bits/(Pixel*Frame)               : 0.189
Stream size                      : 1.01 GiB (75%)
Writing library                  : x264 core 79
              

Audio
ID                               : 2
Format                           : AC-3
Format/Info                      : Audio Coding 3
Codec ID                         : A_AC3
Duration                         : 1h 37mn
Bit rate mode                    : Constant
Bit rate                         : 448 Kbps
Channel(s)                       : 6 channels
Channel positions                : Front: L C R, Surround: L R, LFE
Sampling rate                    : 48.0 KHz
Stream size                      : 311 MiB (23%)
Language                         : Spanish/French

Text #1
Language                         : Swedish

Text #2
Language                         : Norwegian

Text #3
Language                         : Danish

Text #4
Language                         : Finnish

